<svg width="45" height="58" viewBox="0 0 45 58" fill="none" xmlns="http://www.w3.org/2000/svg">
<path d="M9.79209 48.9636C13.0504 51.9874 17.4204 53.7295 22 53.8529V53.8625L22.5003 53.8622C25.0375 53.8609 27.5465 53.3592 29.8612 52.3894C32.176 51.4195 34.245 50.0029 35.9298 48.2315L36.2786 47.8647L35.9076 47.5204L10.7226 24.1483L10.295 23.7515L9.9683 24.2347L7.63104 27.6912L8.045 27.9717L7.63081 27.6916L7.63092 27.6914C5.71808 30.5153 4.63719 33.7597 4.50042 37.0991L4.49999 37.1097L4.5 37.1203C4.50615 41.5707 6.41426 45.8289 9.79209 48.9636ZM24.2123 1.30608L40.7753 25.7824C43.0744 29.1967 44.3581 33.1108 44.5 37.1283C44.4975 42.5178 42.1897 47.6944 38.0698 51.5178C33.9464 55.3444 28.3463 57.5 22.5 57.5C16.6537 57.5 11.0536 55.3444 6.93021 51.5178C2.81014 47.6943 0.502345 42.5175 0.500002 37.1278C0.632227 33.155 1.88986 29.2818 4.14999 25.898C4.15025 25.8977 4.15051 25.8973 4.15076 25.8969L20.7877 1.30605C20.9776 1.06244 21.2293 0.860401 21.5246 0.719143C21.8246 0.575684 22.1591 0.5 22.5 0.5C22.8409 0.5 23.1754 0.575685 23.4754 0.719143C23.7707 0.860406 24.0224 1.06245 24.2123 1.30608Z" fill="#555555" stroke="#555555"/>
</svg>
