<svg width="77" height="68" viewBox="0 0 77 68" fill="none" xmlns="http://www.w3.org/2000/svg">
<path d="M53.9 53.8977C63.4683 53.8977 71.225 46.1136 71.225 36.5114C71.225 26.9091 63.4683 19.125 53.9 19.125C44.3317 19.125 36.575 26.9091 36.575 36.5114C36.575 46.1136 44.3317 53.8977 53.9 53.8977Z" fill="#2C3E50"/>
<path d="M53.9 13.3295C41.195 13.3295 30.8 23.7614 30.8 36.5114C30.8 49.2614 41.195 59.6932 53.9 59.6932C66.605 59.6932 77 49.2614 77 36.5114C77 23.7614 66.605 13.3295 53.9 13.3295ZM53.9 51.9659C45.43 51.9659 38.5 45.0114 38.5 36.5114C38.5 28.0114 45.43 21.0568 53.9 21.0568C62.37 21.0568 69.3 28.0114 69.3 36.5114C69.3 45.0114 62.37 51.9659 53.9 51.9659Z" fill="white"/>
<path d="M41.195 32.6477L30.415 0L18.48 43.6591L14.245 32.6477H0V40.375H8.855L20.02 68L31.185 26.6591L35.805 40.375H50.05V32.6477H41.195Z" fill="white"/>
<path d="M53.9 44.2386C58.1526 44.2386 61.6 40.779 61.6 36.5114C61.6 32.2437 58.1526 28.7841 53.9 28.7841C49.6474 28.7841 46.2 32.2437 46.2 36.5114C46.2 40.779 49.6474 44.2386 53.9 44.2386Z" fill="white"/>
</svg>
