<svg width="231" height="222" viewBox="0 0 231 222" fill="none" xmlns="http://www.w3.org/2000/svg">
<g filter="url(#filter0_dd_112_159)">
<path d="M130.9 125.898C140.468 125.898 148.225 118.114 148.225 108.511C148.225 98.9091 140.468 91.125 130.9 91.125C121.332 91.125 113.575 98.9091 113.575 108.511C113.575 118.114 121.332 125.898 130.9 125.898Z" fill="white"/>
<path d="M130.9 85.3295C118.195 85.3295 107.8 95.7614 107.8 108.511C107.8 121.261 118.195 131.693 130.9 131.693C143.605 131.693 154 121.261 154 108.511C154 95.7614 143.605 85.3295 130.9 85.3295ZM130.9 123.966C122.43 123.966 115.5 117.011 115.5 108.511C115.5 100.011 122.43 93.0568 130.9 93.0568C139.37 93.0568 146.3 100.011 146.3 108.511C146.3 117.011 139.37 123.966 130.9 123.966Z" fill="#2C3E50"/>
<path d="M118.195 104.648L107.415 72L95.48 115.659L91.245 104.648H77V112.375H85.855L97.02 140L108.185 98.6591L112.805 112.375H127.05V104.648H118.195Z" fill="#2C3E50"/>
<path d="M130.9 116.239C135.153 116.239 138.6 112.779 138.6 108.511C138.6 104.244 135.153 100.784 130.9 100.784C126.647 100.784 123.2 104.244 123.2 108.511C123.2 112.779 126.647 116.239 130.9 116.239Z" fill="#2C3E50"/>
</g>
<defs>
<filter id="filter0_dd_112_159" x="0" y="0" width="231" height="222" filterUnits="userSpaceOnUse" color-interpolation-filters="sRGB">
<feFlood flood-opacity="0" result="BackgroundImageFix"/>
<feColorMatrix in="SourceAlpha" type="matrix" values="0 0 0 0 0 0 0 0 0 0 0 0 0 0 0 0 0 0 127 0" result="hardAlpha"/>
<feOffset dy="0.626078"/>
<feGaussianBlur stdDeviation="4.8208"/>
<feColorMatrix type="matrix" values="0 0 0 0 0 0 0 0 0 0 0 0 0 0 0 0 0 0 0.055 0"/>
<feBlend mode="normal" in2="BackgroundImageFix" result="effect1_dropShadow_112_159"/>
<feColorMatrix in="SourceAlpha" type="matrix" values="0 0 0 0 0 0 0 0 0 0 0 0 0 0 0 0 0 0 127 0" result="hardAlpha"/>
<feOffset dy="5"/>
<feGaussianBlur stdDeviation="38.5"/>
<feColorMatrix type="matrix" values="0 0 0 0 0 0 0 0 0 0 0 0 0 0 0 0 0 0 0.11 0"/>
<feBlend mode="normal" in2="effect1_dropShadow_112_159" result="effect2_dropShadow_112_159"/>
<feBlend mode="normal" in="SourceGraphic" in2="effect2_dropShadow_112_159" result="shape"/>
</filter>
</defs>
</svg>
