<svg width="61" height="59" viewBox="0 0 61 59" fill="none" xmlns="http://www.w3.org/2000/svg">
<mask id="path-1-inside-1_112_160" fill="white">
<path d="M19.6062 29.5V18.9643H21.7846C24.0948 18.9615 26.3095 18.0726 27.9431 16.4925C29.5766 14.9125 30.4956 12.7702 30.4985 10.5357V4.21428H23.9631C21.7323 4.21782 19.5889 5.05332 17.9789 6.54689C16.8508 4.56569 15.1941 2.9133 13.1815 1.76184C11.1688 0.610383 8.87375 0.00197857 6.53539 0H0V6.32142C0.00403585 9.67332 1.38243 12.8868 3.8328 15.257C6.28317 17.6271 9.60544 18.9604 13.0708 18.9643H15.2492V29.5H0V33.7143H30.4985V29.5H19.6062ZM23.9631 8.42856H26.1416V10.5357C26.1404 11.6531 25.681 12.7243 24.8642 13.5144C24.0473 14.3045 22.9398 14.7489 21.7846 14.75H19.6062V12.6428C19.6073 11.5255 20.0667 10.4542 20.8836 9.66413C21.7004 8.87404 22.8079 8.42968 23.9631 8.42856ZM13.0708 14.75C10.7606 14.7472 8.54588 13.8583 6.91234 12.2782C5.2788 10.6982 4.35981 8.55596 4.35693 6.32142V4.21428H6.53539C8.84557 4.21707 11.0603 5.10597 12.6938 6.68603C14.3274 8.26609 15.2464 10.4083 15.2492 12.6428V14.75H13.0708ZM0 40.0357H30.4985V44.25H0V40.0357ZM0 50.5714H30.4985V54.7857H0V50.5714ZM50.1047 59C47.8205 59.0068 45.5922 58.3169 43.7367 57.0284C41.8812 55.7399 40.4928 53.9184 39.769 51.8228C39.0453 49.7272 39.0229 47.4643 39.7052 45.3558C40.3874 43.2472 41.7395 41.4004 43.5693 40.0778V27.3928C43.5693 25.7163 44.2578 24.1084 45.4835 22.9229C46.7091 21.7374 48.3714 21.0714 50.1047 21.0714C51.838 21.0714 53.5003 21.7374 54.7259 22.9229C55.9515 24.1084 56.6401 25.7163 56.6401 27.3928V40.0778C58.4698 41.4004 59.8219 43.2472 60.5042 45.3558C61.1864 47.4643 61.1641 49.7272 60.4403 51.8228C59.7165 53.9184 58.3282 55.7399 56.4726 57.0284C54.6171 58.3169 52.3889 59.0068 50.1047 59ZM50.1047 25.2857C49.5271 25.2863 48.9733 25.5084 48.5649 25.9035C48.1565 26.2985 47.9268 26.8342 47.9262 27.3928V42.4167L46.8435 43.0278C45.8498 43.5733 45.0233 44.3638 44.4482 45.3188C43.873 46.2737 43.5698 47.3591 43.5693 48.4642C43.5693 50.1408 44.2578 51.7487 45.4835 52.9342C46.7091 54.1197 48.3714 54.7857 50.1047 54.7857C51.838 54.7857 53.5003 54.1197 54.7259 52.9342C55.9515 51.7487 56.6401 50.1408 56.6401 48.4642C56.64 47.3587 56.3369 46.2729 55.7617 45.3176C55.1866 44.3622 54.3599 43.5714 53.3658 43.0257L52.2831 42.4167V27.3928C52.2826 26.8342 52.0529 26.2985 51.6444 25.9035C51.236 25.5084 50.6823 25.2863 50.1047 25.2857Z"/>
</mask>
<path d="M19.6062 29.5V18.9643H21.7846C24.0948 18.9615 26.3095 18.0726 27.9431 16.4925C29.5766 14.9125 30.4956 12.7702 30.4985 10.5357V4.21428H23.9631C21.7323 4.21782 19.5889 5.05332 17.9789 6.54689C16.8508 4.56569 15.1941 2.9133 13.1815 1.76184C11.1688 0.610383 8.87375 0.00197857 6.53539 0H0V6.32142C0.00403585 9.67332 1.38243 12.8868 3.8328 15.257C6.28317 17.6271 9.60544 18.9604 13.0708 18.9643H15.2492V29.5H0V33.7143H30.4985V29.5H19.6062ZM23.9631 8.42856H26.1416V10.5357C26.1404 11.6531 25.681 12.7243 24.8642 13.5144C24.0473 14.3045 22.9398 14.7489 21.7846 14.75H19.6062V12.6428C19.6073 11.5255 20.0667 10.4542 20.8836 9.66413C21.7004 8.87404 22.8079 8.42968 23.9631 8.42856ZM13.0708 14.75C10.7606 14.7472 8.54588 13.8583 6.91234 12.2782C5.2788 10.6982 4.35981 8.55596 4.35693 6.32142V4.21428H6.53539C8.84557 4.21707 11.0603 5.10597 12.6938 6.68603C14.3274 8.26609 15.2464 10.4083 15.2492 12.6428V14.75H13.0708ZM0 40.0357H30.4985V44.25H0V40.0357ZM0 50.5714H30.4985V54.7857H0V50.5714ZM50.1047 59C47.8205 59.0068 45.5922 58.3169 43.7367 57.0284C41.8812 55.7399 40.4928 53.9184 39.769 51.8228C39.0453 49.7272 39.0229 47.4643 39.7052 45.3558C40.3874 43.2472 41.7395 41.4004 43.5693 40.0778V27.3928C43.5693 25.7163 44.2578 24.1084 45.4835 22.9229C46.7091 21.7374 48.3714 21.0714 50.1047 21.0714C51.838 21.0714 53.5003 21.7374 54.7259 22.9229C55.9515 24.1084 56.6401 25.7163 56.6401 27.3928V40.0778C58.4698 41.4004 59.8219 43.2472 60.5042 45.3558C61.1864 47.4643 61.1641 49.7272 60.4403 51.8228C59.7165 53.9184 58.3282 55.7399 56.4726 57.0284C54.6171 58.3169 52.3889 59.0068 50.1047 59ZM50.1047 25.2857C49.5271 25.2863 48.9733 25.5084 48.5649 25.9035C48.1565 26.2985 47.9268 26.8342 47.9262 27.3928V42.4167L46.8435 43.0278C45.8498 43.5733 45.0233 44.3638 44.4482 45.3188C43.873 46.2737 43.5698 47.3591 43.5693 48.4642C43.5693 50.1408 44.2578 51.7487 45.4835 52.9342C46.7091 54.1197 48.3714 54.7857 50.1047 54.7857C51.838 54.7857 53.5003 54.1197 54.7259 52.9342C55.9515 51.7487 56.6401 50.1408 56.6401 48.4642C56.64 47.3587 56.3369 46.2729 55.7617 45.3176C55.1866 44.3622 54.3599 43.5714 53.3658 43.0257L52.2831 42.4167V27.3928C52.2826 26.8342 52.0529 26.2985 51.6444 25.9035C51.236 25.5084 50.6823 25.2863 50.1047 25.2857Z" fill="#555555"/>
<path d="M19.6062 29.5H14.6062V34.5H19.6062V29.5ZM19.6062 18.9643V13.9643H14.6062V18.9643H19.6062ZM21.7846 18.9643L21.7846 23.9643L21.7907 23.9643L21.7846 18.9643ZM30.4985 10.5357L35.4985 10.5422V10.5357H30.4985ZM30.4985 4.21428H35.4985V-0.785718H30.4985V4.21428ZM23.9631 4.21428L23.9631 -0.785724L23.9552 -0.785711L23.9631 4.21428ZM17.9789 6.54689L13.6338 9.02092L16.755 14.5024L21.3794 10.2125L17.9789 6.54689ZM6.53539 0L6.53962 -5H6.53539V0ZM0 0V-5H-5V0H0ZM0 6.32142L-5 6.32142L-5 6.32744L0 6.32142ZM13.0708 18.9643L13.0652 23.9643H13.0708V18.9643ZM15.2492 18.9643H20.2492V13.9643H15.2492V18.9643ZM15.2492 29.5V34.5H20.2492V29.5H15.2492ZM0 29.5V24.5H-5V29.5H0ZM0 33.7143H-5V38.7143H0V33.7143ZM30.4985 33.7143V38.7143H35.4985V33.7143H30.4985ZM30.4985 29.5H35.4985V24.5H30.4985V29.5ZM23.9631 8.42856L23.9631 3.42856L23.9583 3.42857L23.9631 8.42856ZM26.1416 8.42856H31.1416V3.42856H26.1416V8.42856ZM26.1416 10.5357L31.1416 10.5409V10.5357H26.1416ZM21.7846 14.75L21.7846 19.75L21.7895 19.75L21.7846 14.75ZM19.6062 14.75H14.6062V19.75H19.6062V14.75ZM19.6062 12.6428L14.6062 12.6377V12.6428H19.6062ZM13.0708 14.75L13.0647 19.75H13.0708V14.75ZM4.35693 6.32142L-0.643076 6.32142L-0.643068 6.32787L4.35693 6.32142ZM4.35693 4.21428V-0.785718H-0.643072V4.21428H4.35693ZM6.53539 4.21428L6.54143 -0.785718H6.53539V4.21428ZM15.2492 12.6428L20.2493 12.6428L20.2492 12.6364L15.2492 12.6428ZM15.2492 14.75V19.75H20.2492V14.75H15.2492ZM0 40.0357V35.0357H-5V40.0357H0ZM30.4985 40.0357H35.4985V35.0357H30.4985V40.0357ZM30.4985 44.25V49.25H35.4985V44.25H30.4985ZM0 44.25H-5V49.25H0V44.25ZM0 50.5714V45.5714H-5V50.5714H0ZM30.4985 50.5714H35.4985V45.5714H30.4985V50.5714ZM30.4985 54.7857V59.7857H35.4985V54.7857H30.4985ZM0 54.7857H-5V59.7857H0V54.7857ZM50.1047 59L50.1196 54L50.1047 53.9999L50.0898 54L50.1047 59ZM43.5693 40.0778L46.4983 44.1301L48.5693 42.6332V40.0778H43.5693ZM43.5693 27.3928L38.5693 27.3928V27.3928H43.5693ZM56.6401 27.3928L61.6401 27.3928L61.6401 27.3928L56.6401 27.3928ZM56.6401 40.0778H51.6401V42.6332L53.7111 44.1301L56.6401 40.0778ZM50.1047 25.2857L50.1095 20.2857L50.0998 20.2857L50.1047 25.2857ZM47.9262 27.3928L42.9262 27.3877V27.3928H47.9262ZM47.9262 42.4167L50.3838 46.7711L52.9262 45.3361V42.4167H47.9262ZM46.8435 43.0278L49.2497 47.4108L49.2755 47.3966L49.3011 47.3822L46.8435 43.0278ZM43.5693 48.4642L38.5693 48.4621L38.5693 48.4642L43.5693 48.4642ZM50.1047 54.7857L50.1047 49.7857L50.1047 54.7857ZM56.6401 48.4642L61.6401 48.4642L61.6401 48.4638L56.6401 48.4642ZM53.3658 43.0257L50.9147 47.3837L50.9371 47.3963L50.9597 47.4087L53.3658 43.0257ZM52.2831 42.4167H47.2831V45.3411L49.832 46.7747L52.2831 42.4167ZM52.2831 27.3928L57.2831 27.3928L57.2831 27.3877L52.2831 27.3928ZM24.6062 29.5V18.9643H14.6062V29.5H24.6062ZM19.6062 23.9643H21.7846V13.9643H19.6062V23.9643ZM21.7907 23.9643C25.3722 23.9599 28.8378 22.5834 31.4193 20.0864L24.4669 12.8986C23.7813 13.5618 22.8174 13.963 21.7786 13.9643L21.7907 23.9643ZM31.4193 20.0864C34.0064 17.584 35.4938 14.1552 35.4985 10.5422L25.4985 10.5293C25.4974 11.3853 25.1468 12.2409 24.4669 12.8986L31.4193 20.0864ZM35.4985 10.5357V4.21428H25.4985V10.5357H35.4985ZM30.4985 -0.785718H23.9631V9.21428H30.4985V-0.785718ZM23.9552 -0.785711C20.4879 -0.780214 17.127 0.516942 14.5784 2.88129L21.3794 10.2125C22.0507 9.58969 22.9767 9.21585 23.971 9.21428L23.9552 -0.785711ZM22.3239 4.07286C20.7453 1.30048 18.4395 -0.990413 15.6644 -2.57811L10.6985 6.10179C11.9487 6.81701 12.9563 7.83089 13.6338 9.02092L22.3239 4.07286ZM15.6644 -2.57811C12.8903 -4.16519 9.73983 -4.99729 6.53962 -5L6.53116 5C8.00768 5.00125 9.44733 5.38596 10.6985 6.10179L15.6644 -2.57811ZM6.53539 -5H0V5H6.53539V-5ZM-5 0V6.32142H5V0H-5ZM-5 6.32744C-4.9943 11.058 -3.04747 15.5582 0.356589 18.8508L7.30901 11.6631C5.81232 10.2154 5.00237 8.28863 5 6.3154L-5 6.32744ZM0.356589 18.8508C3.75502 22.138 8.32834 23.9589 13.0652 23.9643L13.0764 13.9643C10.8825 13.9618 8.81133 13.1162 7.30901 11.6631L0.356589 18.8508ZM13.0708 23.9643H15.2492V13.9643H13.0708V23.9643ZM10.2492 18.9643V29.5H20.2492V18.9643H10.2492ZM15.2492 24.5H0V34.5H15.2492V24.5ZM-5 29.5V33.7143H5V29.5H-5ZM0 38.7143H30.4985V28.7143H0V38.7143ZM35.4985 33.7143V29.5H25.4985V33.7143H35.4985ZM30.4985 24.5H19.6062V34.5H30.4985V24.5ZM23.9631 13.4286H26.1416V3.42856H23.9631V13.4286ZM21.1416 8.42856V10.5357H31.1416V8.42856H21.1416ZM21.1416 10.5305C21.1418 10.2689 21.2509 10.0531 21.388 9.92054L28.3404 17.1083C30.1111 15.3955 31.139 13.0372 31.1416 10.5409L21.1416 10.5305ZM21.388 9.92054C21.5194 9.79342 21.6632 9.7501 21.7798 9.74999L21.7895 19.75C24.2164 19.7476 26.5753 18.8156 28.3404 17.1083L21.388 9.92054ZM21.7846 9.74999H19.6062V19.75H21.7846V9.74999ZM24.6062 14.75V12.6428H14.6062V14.75H24.6062ZM24.6062 12.648C24.6059 12.9096 24.4968 13.1254 24.3598 13.258L17.4074 6.07026C15.6366 7.78301 14.6088 10.1414 14.6062 12.6377L24.6062 12.648ZM24.3598 13.258C24.2284 13.3851 24.0845 13.4284 23.9679 13.4286L23.9583 3.42857C21.5314 3.43091 19.1724 4.36295 17.4074 6.07026L24.3598 13.258ZM13.0768 9.74999C12.038 9.74874 11.0741 9.3475 10.3886 8.68436L3.43613 15.8721C6.01762 18.3691 9.48325 19.7457 13.0647 19.75L13.0768 9.74999ZM10.3886 8.68436C9.70859 8.02666 9.35803 7.171 9.35692 6.31497L-0.643068 6.32787C-0.638407 9.94092 0.84901 13.3697 3.43613 15.8721L10.3886 8.68436ZM9.35693 6.32142V4.21428H-0.643072V6.32142H9.35693ZM4.35693 9.21428H6.53539V-0.785718H4.35693V9.21428ZM6.52936 9.21428C7.5682 9.21553 8.53204 9.61677 9.21762 10.2799L16.17 3.09215C13.5886 0.595178 10.1229 -0.781392 6.54143 -0.785714L6.52936 9.21428ZM9.21762 10.2799C9.89759 10.9376 10.2481 11.7933 10.2493 12.6493L20.2492 12.6364C20.2446 9.02335 18.7572 5.59457 16.17 3.09215L9.21762 10.2799ZM10.2492 12.6428V14.75H20.2492V12.6428H10.2492ZM15.2492 9.74999H13.0708V19.75H15.2492V9.74999ZM0 45.0357H30.4985V35.0357H0V45.0357ZM25.4985 40.0357V44.25H35.4985V40.0357H25.4985ZM30.4985 39.25H0V49.25H30.4985V39.25ZM5 44.25V40.0357H-5V44.25H5ZM0 55.5714H30.4985V45.5714H0V55.5714ZM25.4985 50.5714V54.7857H35.4985V50.5714H25.4985ZM30.4985 49.7857H0V59.7857H30.4985V49.7857ZM5 54.7857V50.5714H-5V54.7857H5ZM50.0898 54C48.8179 54.0038 47.5926 53.6187 46.5886 52.9215L40.8848 61.1353C43.5919 63.0151 46.8231 64.0098 50.1196 63.9999L50.0898 54ZM46.5886 52.9215C45.5867 52.2258 44.8655 51.263 44.4951 50.1905L35.043 53.4551C36.1201 56.5737 38.1756 59.254 40.8848 61.1353L46.5886 52.9215ZM44.4951 50.1905C44.1255 49.1203 44.1143 47.9706 44.4623 46.895L34.948 43.8165C33.9315 46.958 33.9651 50.3342 35.043 53.4551L44.4951 50.1905ZM44.4623 46.895C44.8111 45.8172 45.5121 44.8429 46.4983 44.1301L40.6403 36.0256C37.967 37.9578 35.9637 40.6772 34.948 43.8165L44.4623 46.895ZM48.5693 40.0778V27.3928H38.5693V40.0778H48.5693ZM48.5693 27.3928C48.5693 27.0971 48.6892 26.7784 48.9597 26.5168L42.0072 19.329C39.8265 21.4384 38.5693 24.3355 38.5693 27.3928L48.5693 27.3928ZM48.9597 26.5168C49.2358 26.2497 49.6447 26.0714 50.1047 26.0714V16.0714C47.098 16.0714 44.1824 17.2251 42.0072 19.329L48.9597 26.5168ZM50.1047 26.0714C50.5646 26.0714 50.9735 26.2497 51.2497 26.5168L58.2021 19.329C56.027 17.2251 53.1113 16.0714 50.1047 16.0714V26.0714ZM51.2497 26.5168C51.5202 26.7784 51.6401 27.0971 51.6401 27.3928L61.6401 27.3928C61.6401 24.3355 60.3829 21.4384 58.2021 19.329L51.2497 26.5168ZM51.6401 27.3928V40.0778H61.6401V27.3928H51.6401ZM53.7111 44.1301C54.6973 44.8429 55.3983 45.8172 55.747 46.895L65.2614 43.8165C64.2456 40.6772 62.2423 37.9578 59.5691 36.0256L53.7111 44.1301ZM55.747 46.895C56.095 47.9706 56.0839 49.1203 55.7143 50.1905L65.1664 53.4551C66.2443 50.3342 66.2778 46.958 65.2614 43.8165L55.747 46.895ZM55.7143 50.1905C55.3438 51.263 54.6226 52.2258 53.6208 52.9215L59.3245 61.1353C62.0338 59.254 64.0892 56.5737 65.1664 53.4551L55.7143 50.1905ZM53.6208 52.9215C52.6167 53.6187 51.3915 54.0038 50.1196 54L50.0898 63.9999C53.3863 64.0098 56.6175 63.0151 59.3245 61.1353L53.6208 52.9215ZM50.0998 20.2857C48.2505 20.2875 46.4454 20.9973 45.0887 22.3096L52.0411 29.4974C51.5013 30.0195 50.8037 30.285 50.1095 30.2857L50.0998 20.2857ZM45.0887 22.3096C43.7264 23.6273 42.9282 25.45 42.9262 27.3877L52.9262 27.398C52.9254 28.2183 52.5866 28.9697 52.0411 29.4974L45.0887 22.3096ZM42.9262 27.3928V42.4167H52.9262V27.3928H42.9262ZM45.4686 38.0624L44.3859 38.6735L49.3011 47.3822L50.3838 46.7711L45.4686 38.0624ZM44.4374 38.6448C42.6835 39.6077 41.2036 41.0146 40.165 42.7391L48.7313 47.8984C48.843 47.713 49.0161 47.539 49.2497 47.4108L44.4374 38.6448ZM40.165 42.7391C39.1255 44.4651 38.5702 46.4403 38.5693 48.4621L48.5693 48.4664C48.5694 48.2778 48.6205 48.0824 48.7313 47.8984L40.165 42.7391ZM38.5693 48.4642C38.5693 51.5216 39.8265 54.4187 42.0072 56.528L48.9597 49.3403C48.6892 49.0787 48.5693 48.76 48.5693 48.4642L38.5693 48.4642ZM42.0072 56.528C44.1824 58.6319 47.098 59.7857 50.1047 59.7857L50.1047 49.7857C49.6447 49.7857 49.2358 49.6074 48.9597 49.3403L42.0072 56.528ZM50.1047 59.7857C53.1113 59.7857 56.027 58.6319 58.2021 56.528L51.2497 49.3403C50.9735 49.6074 50.5646 49.7857 50.1047 49.7857V59.7857ZM58.2021 56.528C60.3829 54.4187 61.6401 51.5216 61.6401 48.4642L51.6401 48.4642C51.6401 48.76 51.5202 49.0787 51.2497 49.3403L58.2021 56.528ZM61.6401 48.4638C61.6399 46.4414 61.0849 44.4653 60.0453 42.7387L51.4781 47.8965C51.5889 48.0805 51.64 48.276 51.6401 48.4647L61.6401 48.4638ZM60.0453 42.7387C59.0067 41.0134 57.5264 39.6059 55.772 38.6427L50.9597 47.4087C51.1933 47.5369 51.3665 47.711 51.4781 47.8965L60.0453 42.7387ZM55.817 38.6677L54.7343 38.0588L49.832 46.7747L50.9147 47.3837L55.817 38.6677ZM57.2831 42.4167V27.3928H47.2831V42.4167H57.2831ZM57.2831 27.3877C57.2811 25.45 56.483 23.6273 55.1207 22.3096L48.1682 29.4974C47.6228 28.9697 47.284 28.2183 47.2831 27.398L57.2831 27.3877ZM55.1207 22.3096C53.764 20.9973 51.9588 20.2875 50.1095 20.2857L50.0998 30.2857C49.4057 30.285 48.7081 30.0195 48.1682 29.4974L55.1207 22.3096Z" fill="#555555" mask="url(#path-1-inside-1_112_160)"/>
</svg>
