<svg width="73" height="73" viewBox="0 0 73 73" fill="none" xmlns="http://www.w3.org/2000/svg">
<path fill-rule="evenodd" clip-rule="evenodd" d="M36.5 0C16.342 0 0 16.342 0 36.5C0 56.658 16.342 73 36.5 73C56.658 73 73 56.658 73 36.5C73 16.342 56.658 0 36.5 0ZM39.8182 49.7727C39.8182 50.6528 39.4686 51.4968 38.8463 52.119C38.224 52.7413 37.38 53.0909 36.5 53.0909C35.62 53.0909 34.776 52.7413 34.1537 52.119C33.5314 51.4968 33.1818 50.6528 33.1818 49.7727V39.8182H23.2273C22.3472 39.8182 21.5032 39.4686 20.881 38.8463C20.2587 38.224 19.9091 37.38 19.9091 36.5C19.9091 35.62 20.2587 34.776 20.881 34.1537C21.5032 33.5314 22.3472 33.1818 23.2273 33.1818H33.1818V23.2273C33.1818 22.3472 33.5314 21.5032 34.1537 20.881C34.776 20.2587 35.62 19.9091 36.5 19.9091C37.38 19.9091 38.224 20.2587 38.8463 20.881C39.4686 21.5032 39.8182 22.3472 39.8182 23.2273V33.1818H49.7727C50.6528 33.1818 51.4968 33.5314 52.119 34.1537C52.7413 34.776 53.0909 35.62 53.0909 36.5C53.0909 37.38 52.7413 38.224 52.119 38.8463C51.4968 39.4686 50.6528 39.8182 49.7727 39.8182H39.8182V49.7727Z" fill="#2C3E50"/>
</svg>
